<svg class="marks" width="358" height="101" viewBox="0 0 358 101" version="1.1" xmlns="http://www.w3.org/2000/svg" xmlns:xlink="http://www.w3.org/1999/xlink"><defs><clipPath id="clip1"><rect x="0" y="0" width="300" height="50"></rect></clipPath></defs><g transform="translate(52,11)"><g class="mark-group role-frame root"><g transform="translate(0,0)"><path class="background" d="M0.5,0.5h300v50h-300Z" style="fill: transparent; stroke: #ddd;"></path><g><g class="mark-group role-axis"><g transform="translate(0.5,50.5)"><path class="background" d="M0,0h0v0h0Z" style="pointer-events: none; fill: none;"></path><g><g class="mark-rule role-axis-grid" style="pointer-events: none;"><line transform="translate(0,-50)" x2="0" y2="50" style="fill: none; stroke: #ddd; stroke-width: 1; stroke-dasharray: ; opacity: 1;"></line><line transform="translate(27,-50)" x2="0" y2="50" style="fill: none; stroke: #ddd; stroke-width: 1; stroke-dasharray: ; opacity: 1;"></line><line transform="translate(55,-50)" x2="0" y2="50" style="fill: none; stroke: #ddd; stroke-width: 1; stroke-dasharray: ; opacity: 1;"></line><line transform="translate(82,-50)" x2="0" y2="50" style="fill: none; stroke: #ddd; stroke-width: 1; stroke-dasharray: ; opacity: 1;"></line><line transform="translate(109,-50)" x2="0" y2="50" style="fill: none; stroke: #ddd; stroke-width: 1; stroke-dasharray: ; opacity: 1;"></line><line transform="translate(136,-50)" x2="0" y2="50" style="fill: none; stroke: #ddd; stroke-width: 1; stroke-dasharray: ; opacity: 1;"></line><line transform="translate(164,-50)" x2="0" y2="50" style="fill: none; stroke: #ddd; stroke-width: 1; stroke-dasharray: ; opacity: 1;"></line><line transform="translate(191,-50)" x2="0" y2="50" style="fill: none; stroke: #ddd; stroke-width: 1; stroke-dasharray: ; opacity: 1;"></line><line transform="translate(218,-50)" x2="0" y2="50" style="fill: none; stroke: #ddd; stroke-width: 1; stroke-dasharray: ; opacity: 1;"></line><line transform="translate(245,-50)" x2="0" y2="50" style="fill: none; stroke: #ddd; stroke-width: 1; stroke-dasharray: ; opacity: 1;"></line><line transform="translate(273,-50)" x2="0" y2="50" style="fill: none; stroke: #ddd; stroke-width: 1; stroke-dasharray: ; opacity: 1;"></line><line transform="translate(300,-50)" x2="0" y2="50" style="fill: none; stroke: #ddd; stroke-width: 1; stroke-dasharray: ; opacity: 1;"></line></g></g></g></g><g class="mark-group role-axis"><g transform="translate(0.5,0.5)"><path class="background" d="M0,0h0v0h0Z" style="pointer-events: none; fill: none;"></path><g><g class="mark-rule role-axis-grid" style="pointer-events: none;"><line transform="translate(0,50)" x2="300" y2="0" style="fill: none; stroke: #ddd; stroke-width: 1; stroke-dasharray: ; opacity: 1;"></line><line transform="translate(0,25)" x2="300" y2="0" style="fill: none; stroke: #ddd; stroke-width: 1; stroke-dasharray: ; opacity: 1;"></line><line transform="translate(0,0)" x2="300" y2="0" style="fill: none; stroke: #ddd; stroke-width: 1; stroke-dasharray: ; opacity: 1;"></line></g></g></g></g><g class="mark-rect role-mark layer_0_marks" clip-path="url(#clip1)"><path d="M11.136363636363637,47.5h5v2.5h-5Z" style="fill: #4c78a8;"></path><path d="M24.772727272727273,45h5v5h-5Z" style="fill: #4c78a8;"></path><path d="M38.40909090909091,42.5h5v7.5h-5Z" style="fill: #4c78a8;"></path><path d="M52.04545454545455,40h5v10h-5Z" style="fill: #4c78a8;"></path><path d="M65.68181818181817,37.5h5v12.5h-5Z" style="fill: #4c78a8;"></path><path d="M79.31818181818181,35h5v15h-5Z" style="fill: #4c78a8;"></path><path d="M92.95454545454545,32.5h5v17.5h-5Z" style="fill: #4c78a8;"></path><path d="M106.5909090909091,30h5v20h-5Z" style="fill: #4c78a8;"></path><path d="M120.22727272727273,27.5h5v22.5h-5Z" style="fill: #4c78a8;"></path><path d="M133.86363636363635,25h5v25h-5Z" style="fill: #4c78a8;"></path><path d="M147.5,22.499999999999996h5v27.500000000000004h-5Z" style="fill: #4c78a8;"></path><path d="M161.13636363636363,20h5v30h-5Z" style="fill: #4c78a8;"></path><path d="M174.77272727272728,17.5h5v32.5h-5Z" style="fill: #4c78a8;"></path><path d="M188.4090909090909,15h5v35h-5Z" style="fill: #4c78a8;"></path><path d="M202.04545454545453,12.5h5v37.5h-5Z" style="fill: #4c78a8;"></path><path d="M215.6818181818182,10h5v40h-5Z" style="fill: #4c78a8;"></path><path d="M229.3181818181818,7.5h5v42.5h-5Z" style="fill: #4c78a8;"></path><path d="M242.95454545454547,5h5v45h-5Z" style="fill: #4c78a8;"></path><path d="M256.5909090909091,2.5h5v47.5h-5Z" style="fill: #4c78a8;"></path><path d="M270.2272727272727,0h5v50h-5Z" style="fill: #4c78a8;"></path></g><g class="mark-group role-axis"><g transform="translate(0.5,50.5)"><path class="background" d="M0,0h0v0h0Z" style="pointer-events: none; fill: none;"></path><g><g class="mark-rule role-axis-tick" style="pointer-events: none;"><line transform="translate(0,0)" x2="0" y2="5" style="fill: none; stroke: #888; stroke-width: 1; opacity: 1;"></line><line transform="translate(27,0)" x2="0" y2="5" style="fill: none; stroke: #888; stroke-width: 1; opacity: 1;"></line><line transform="translate(55,0)" x2="0" y2="5" style="fill: none; stroke: #888; stroke-width: 1; opacity: 1;"></line><line transform="translate(82,0)" x2="0" y2="5" style="fill: none; stroke: #888; stroke-width: 1; opacity: 1;"></line><line transform="translate(109,0)" x2="0" y2="5" style="fill: none; stroke: #888; stroke-width: 1; opacity: 1;"></line><line transform="translate(136,0)" x2="0" y2="5" style="fill: none; stroke: #888; stroke-width: 1; opacity: 1;"></line><line transform="translate(164,0)" x2="0" y2="5" style="fill: none; stroke: #888; stroke-width: 1; opacity: 1;"></line><line transform="translate(191,0)" x2="0" y2="5" style="fill: none; stroke: #888; stroke-width: 1; opacity: 1;"></line><line transform="translate(218,0)" x2="0" y2="5" style="fill: none; stroke: #888; stroke-width: 1; opacity: 1;"></line><line transform="translate(245,0)" x2="0" y2="5" style="fill: none; stroke: #888; stroke-width: 1; opacity: 1;"></line><line transform="translate(273,0)" x2="0" y2="5" style="fill: none; stroke: #888; stroke-width: 1; opacity: 1;"></line><line transform="translate(300,0)" x2="0" y2="5" style="fill: none; stroke: #888; stroke-width: 1; opacity: 1;"></line></g><g class="mark-text role-axis-label" style="pointer-events: none;"><text text-anchor="start" transform="translate(0,15)" style="font: 10px sans-serif; fill: #000; opacity: 1;">0</text><text text-anchor="middle" transform="translate(27.272727272727273,15)" style="font: 10px sans-serif; fill: #000; opacity: 1;">2</text><text text-anchor="middle" transform="translate(54.54545454545455,15)" style="font: 10px sans-serif; fill: #000; opacity: 1;">4</text><text text-anchor="middle" transform="translate(81.81818181818181,15)" style="font: 10px sans-serif; fill: #000; opacity: 1;">6</text><text text-anchor="middle" transform="translate(109.0909090909091,15)" style="font: 10px sans-serif; fill: #000; opacity: 1;">8</text><text text-anchor="middle" transform="translate(136.36363636363635,15)" style="font: 10px sans-serif; fill: #000; opacity: 1;">10</text><text text-anchor="middle" transform="translate(163.63636363636363,15)" style="font: 10px sans-serif; fill: #000; opacity: 1;">12</text><text text-anchor="middle" transform="translate(190.9090909090909,15)" style="font: 10px sans-serif; fill: #000; opacity: 1;">14</text><text text-anchor="middle" transform="translate(218.1818181818182,15)" style="font: 10px sans-serif; fill: #000; opacity: 1;">16</text><text text-anchor="middle" transform="translate(245.45454545454547,15)" style="font: 10px sans-serif; fill: #000; opacity: 1;">18</text><text text-anchor="middle" transform="translate(272.7272727272727,15)" style="font: 10px sans-serif; fill: #000; opacity: 1;">20</text><text text-anchor="end" transform="translate(300,15)" style="font: 10px sans-serif; fill: #000; opacity: 1;">22</text></g><g class="mark-rule role-axis-domain" style="pointer-events: none;"><line transform="translate(0,0)" x2="300" y2="0" style="fill: none; stroke: #888; stroke-width: 1; opacity: 1;"></line></g><g class="mark-text role-axis-title" style="pointer-events: none;"><text text-anchor="middle" transform="translate(150,31)" style="font: bold 11px sans-serif; fill: #000; opacity: 1;">RowNumber</text></g></g></g></g><g class="mark-group role-axis"><g transform="translate(0.5,0.5)"><path class="background" d="M0,0h0v0h0Z" style="pointer-events: none; fill: none;"></path><g><g class="mark-rule role-axis-tick" style="pointer-events: none;"><line transform="translate(0,50)" x2="-5" y2="0" style="fill: none; stroke: #888; stroke-width: 1; opacity: 1;"></line><line transform="translate(0,25)" x2="-5" y2="0" style="fill: none; stroke: #888; stroke-width: 1; opacity: 1;"></line><line transform="translate(0,0)" x2="-5" y2="0" style="fill: none; stroke: #888; stroke-width: 1; opacity: 1;"></line></g><g class="mark-text role-axis-label" style="pointer-events: none;"><text text-anchor="end" transform="translate(-7,53)" style="font: 10px sans-serif; fill: #000; opacity: 1;">0</text><text text-anchor="end" transform="translate(-7,28)" style="font: 10px sans-serif; fill: #000; opacity: 1;">10</text><text text-anchor="end" transform="translate(-7,3)" style="font: 10px sans-serif; fill: #000; opacity: 1;">20</text></g><g class="mark-rule role-axis-domain" style="pointer-events: none;"><line transform="translate(0,50)" x2="0" y2="-50" style="fill: none; stroke: #888; stroke-width: 1; opacity: 1;"></line></g><g class="mark-text role-axis-title" style="pointer-events: none;"><text text-anchor="middle" transform="translate(-34,25) rotate(-90) translate(0,-2)" style="font: bold 11px sans-serif; fill: #000; opacity: 1;">y</text></g></g></g></g></g></g></g></g></svg>